HIERARCHY
ROOT Hips
{
	OFFSET 0.000000 97.167313 0.000000
	CHANNELS 6 Xposition Yposition Zposition Xrotation Yrotation Zrotation
	JOINT Spine
	{
		OFFSET 0.000000 13.784798 0.064400
		CHANNELS 3 Xrotation Yrotation Zrotation
		JOINT Spine1
		{
			OFFSET 0.000000 12.037903 0.404700
			CHANNELS 3 Xrotation Yrotation Zrotation
			JOINT Spine2
			{
				OFFSET 0.000000 17.795601 0.420200
				CHANNELS 3 Xrotation Yrotation Zrotation
				JOINT Neck
				{
					OFFSET 0.000000 39.131302 11.954600
					CHANNELS 3 Xrotation Yrotation Zrotation
					JOINT Head
					{
						OFFSET 0.000000 14.456192 15.627699
						CHANNELS 3 Xrotation Yrotation Zrotation
						JOINT HeadTop_End
						{
							OFFSET 0.000000 15.703506 7.603401
							CHANNELS 3 Xrotation Yrotation Zrotation
							End Site
							{
								OFFSET 0.000000 17.447403 0.000000
							}
						}
					}
				}
				JOINT LeftShoulder
				{
					OFFSET 17.399500 24.608795 1.168800
					CHANNELS 3 Xrotation Yrotation Zrotation
					JOINT LeftArm
					{
						OFFSET 18.980635 5.765305 1.818600
						CHANNELS 3 Xrotation Yrotation Zrotation
						JOINT LeftForeArm
						{
							OFFSET 49.290169 0.000000 0.000000
							CHANNELS 3 Xrotation Yrotation Zrotation
							JOINT LeftHand
							{
								OFFSET 31.562012 0.000000 0.000000
								CHANNELS 3 Xrotation Yrotation Zrotation
								JOINT LeftHandThumb1
								{
									OFFSET 6.133995 -4.388519 7.076070
									CHANNELS 3 Xrotation Yrotation Zrotation
									JOINT LeftHandThumb2
									{
										OFFSET 6.037666 -3.485840 3.485847
										CHANNELS 3 Xrotation Yrotation Zrotation
										JOINT LeftHandThumb3
										{
											OFFSET 6.496506 -3.750763 3.750761
											CHANNELS 3 Xrotation Yrotation Zrotation
											JOINT LeftHandThumb4
											{
												OFFSET 5.616882 -3.242905 3.242910
												CHANNELS 3 Xrotation Yrotation Zrotation
												End Site
												{
													OFFSET -1.254608 7.132141 0.375429
												}
											}
										}
									}
								}
								JOINT LeftHandPinky1
								{
									OFFSET 18.920792 -0.453171 -11.426712
									CHANNELS 3 Xrotation Yrotation Zrotation
									JOINT LeftHandPinky2
									{
										OFFSET 4.919586 0.000000 0.000000
										CHANNELS 3 Xrotation Yrotation Zrotation
										JOINT LeftHandPinky3
										{
											OFFSET 5.233047 0.000000 0.000000
											CHANNELS 3 Xrotation Yrotation Zrotation
											JOINT LeftHandPinky4
											{
												OFFSET 5.571716 0.000000 0.000000
												CHANNELS 3 Xrotation Yrotation Zrotation
												End Site
												{
													OFFSET -3.459808 4.342407 -0.466164
												}
											}
										}
									}
								}
								JOINT LeftHandRing1
								{
									OFFSET 22.726120 -0.094986 -6.500475
									CHANNELS 3 Xrotation Yrotation Zrotation
									JOINT LeftHandRing2
									{
										OFFSET 6.408615 0.000000 0.000000
										CHANNELS 3 Xrotation Yrotation Zrotation
										JOINT LeftHandRing3
										{
											OFFSET 6.150223 0.000000 0.000000
											CHANNELS 3 Xrotation Yrotation Zrotation
											JOINT LeftHandRing4
											{
												OFFSET 6.145386 0.000000 0.000000
												CHANNELS 3 Xrotation Yrotation Zrotation
												End Site
												{
													OFFSET -3.671402 4.923981 -0.202372
												}
											}
										}
									}
								}
								JOINT LeftHandMiddle1
								{
									OFFSET 23.373947 0.000000 0.000001
									CHANNELS 3 Xrotation Yrotation Zrotation
									JOINT LeftHandMiddle2
									{
										OFFSET 6.996567 0.000000 0.000000
										CHANNELS 3 Xrotation Yrotation Zrotation
										JOINT LeftHandMiddle3
										{
											OFFSET 7.015945 0.000000 0.000000
											CHANNELS 3 Xrotation Yrotation Zrotation
											JOINT LeftHandMiddle4
											{
												OFFSET 7.721573 0.000000 0.000000
												CHANNELS 3 Xrotation Yrotation Zrotation
												End Site
												{
													OFFSET -4.651108 6.158463 0.251582
												}
											}
										}
									}
								}
								JOINT LeftHandIndex1
								{
									OFFSET 21.310577 -0.490082 6.209344
									CHANNELS 3 Xrotation Yrotation Zrotation
									JOINT LeftHandIndex2
									{
										OFFSET 7.536453 0.000000 0.000000
										CHANNELS 3 Xrotation Yrotation Zrotation
										JOINT LeftHandIndex3
										{
											OFFSET 7.512344 0.000000 0.000000
											CHANNELS 3 Xrotation Yrotation Zrotation
											JOINT LeftHandIndex4
											{
												OFFSET 10.212402 0.000000 0.000001
												CHANNELS 3 Xrotation Yrotation Zrotation
												End Site
												{
													OFFSET -5.180801 8.690506 1.388433
												}
											}
										}
									}
								}
							}
						}
					}
				}
				JOINT RightShoulder
				{
					OFFSET -17.399500 24.608795 1.168800
					CHANNELS 3 Xrotation Yrotation Zrotation
					JOINT RightArm
					{
						OFFSET -18.980635 5.765305 1.818600
						CHANNELS 3 Xrotation Yrotation Zrotation
						JOINT RightForeArm
						{
							OFFSET -49.290169 0.000000 0.000000
							CHANNELS 3 Xrotation Yrotation Zrotation
							JOINT RightHand
							{
								OFFSET -31.562012 0.000000 0.000000
								CHANNELS 3 Xrotation Yrotation Zrotation
								JOINT RightHandThumb1
								{
									OFFSET -6.133995 -4.388519 7.076070
									CHANNELS 3 Xrotation Yrotation Zrotation
									JOINT RightHandThumb2
									{
										OFFSET -6.037666 -3.485840 3.485847
										CHANNELS 3 Xrotation Yrotation Zrotation
										JOINT RightHandThumb3
										{
											OFFSET -6.496506 -3.750763 3.750761
											CHANNELS 3 Xrotation Yrotation Zrotation
											JOINT RightHandThumb4
											{
												OFFSET -5.616882 -3.242905 3.242910
												CHANNELS 3 Xrotation Yrotation Zrotation
												End Site
												{
													OFFSET 1.254608 7.132141 0.375429
												}
											}
										}
									}
								}
								JOINT RightHandIndex1
								{
									OFFSET -21.310577 -0.490082 6.209344
									CHANNELS 3 Xrotation Yrotation Zrotation
									JOINT RightHandIndex2
									{
										OFFSET -7.536453 0.000000 0.000000
										CHANNELS 3 Xrotation Yrotation Zrotation
										JOINT RightHandIndex3
										{
											OFFSET -7.512344 0.000000 0.000000
											CHANNELS 3 Xrotation Yrotation Zrotation
											JOINT RightHandIndex4
											{
												OFFSET -10.212402 0.000000 0.000001
												CHANNELS 3 Xrotation Yrotation Zrotation
												End Site
												{
													OFFSET 5.180801 8.690506 1.388433
												}
											}
										}
									}
								}
								JOINT RightHandMiddle1
								{
									OFFSET -23.373947 0.000000 0.000001
									CHANNELS 3 Xrotation Yrotation Zrotation
									JOINT RightHandMiddle2
									{
										OFFSET -6.996567 0.000000 0.000000
										CHANNELS 3 Xrotation Yrotation Zrotation
										JOINT RightHandMiddle3
										{
											OFFSET -7.015945 0.000000 0.000000
											CHANNELS 3 Xrotation Yrotation Zrotation
											JOINT RightHandMiddle4
											{
												OFFSET -7.721573 0.000000 0.000000
												CHANNELS 3 Xrotation Yrotation Zrotation
												End Site
												{
													OFFSET 4.651108 6.158463 0.251582
												}
											}
										}
									}
								}
								JOINT RightHandRing1
								{
									OFFSET -22.726120 -0.094986 -6.500475
									CHANNELS 3 Xrotation Yrotation Zrotation
									JOINT RightHandRing2
									{
										OFFSET -6.408615 0.000000 0.000000
										CHANNELS 3 Xrotation Yrotation Zrotation
										JOINT RightHandRing3
										{
											OFFSET -6.150223 0.000000 0.000000
											CHANNELS 3 Xrotation Yrotation Zrotation
											JOINT RightHandRing4
											{
												OFFSET -6.145386 0.000000 0.000000
												CHANNELS 3 Xrotation Yrotation Zrotation
												End Site
												{
													OFFSET 3.671402 4.923981 -0.202372
												}
											}
										}
									}
								}
								JOINT RightHandPinky1
								{
									OFFSET -18.920792 -0.453171 -11.426712
									CHANNELS 3 Xrotation Yrotation Zrotation
									JOINT RightHandPinky2
									{
										OFFSET -4.919586 0.000000 0.000000
										CHANNELS 3 Xrotation Yrotation Zrotation
										JOINT RightHandPinky3
										{
											OFFSET -5.233047 0.000000 0.000000
											CHANNELS 3 Xrotation Yrotation Zrotation
											JOINT RightHandPinky4
											{
												OFFSET -5.571716 0.000000 0.000000
												CHANNELS 3 Xrotation Yrotation Zrotation
												End Site
												{
													OFFSET 3.459808 4.342407 -0.466164
												}
											}
										}
									}
								}
							}
						}
					}
				}
			}
		}
	}
	JOINT LeftUpLeg
	{
		OFFSET 19.899099 -7.885101 -3.429500
		CHANNELS 3 Xrotation Yrotation Zrotation
		JOINT LeftLeg
		{
			OFFSET 1.745560 -36.997807 10.304700
			CHANNELS 3 Xrotation Yrotation Zrotation
			JOINT LeftFoot
			{
				OFFSET -1.745558 -29.803308 -13.615400
				CHANNELS 3 Xrotation Yrotation Zrotation
				JOINT LeftToeBase
				{
					OFFSET 1.181900 -18.539904 15.226099
					CHANNELS 3 Xrotation Yrotation Zrotation
					JOINT LeftToe_End
					{
						OFFSET -0.863701 1.402801 16.534700
						CHANNELS 3 Xrotation Yrotation Zrotation
						End Site
						{
							OFFSET 0.000000 16.616566 0.000000
						}
					}
				}
			}
		}
	}
	JOINT RightUpLeg
	{
		OFFSET -19.899099 -7.885101 -3.429500
		CHANNELS 3 Xrotation Yrotation Zrotation
		JOINT RightLeg
		{
			OFFSET -1.745560 -36.997807 10.304700
			CHANNELS 3 Xrotation Yrotation Zrotation
			JOINT RightFoot
			{
				OFFSET 1.745558 -29.803308 -13.615400
				CHANNELS 3 Xrotation Yrotation Zrotation
				JOINT RightToeBase
				{
					OFFSET -1.181900 -18.539904 15.226099
					CHANNELS 3 Xrotation Yrotation Zrotation
					JOINT RightToe_End
					{
						OFFSET 0.863701 1.402801 16.534700
						CHANNELS 3 Xrotation Yrotation Zrotation
						End Site
						{
							OFFSET 0.000000 16.616566 0.000000
						}
					}
				}
			}
		}
	}
}
MOTION
Frames: 6
Frame Time: 0.033333
1.435043 88.417259 2.811821 -2.384583 0.100509 -3.254289 14.293496 1.335737 3.706842 -4.344025 0.844258 -0.932463 -4.329080 0.772027 -1.030093 -0.100065 -1.689913 2.622600 -5.840787 -0.460677 -1.540071 -0.000000 -0.000000 0.000000 2.370570 2.599454 -1.341548 -3.621905 -8.176775 -74.042167 12.004561 -10.521478 -9.011677 -0.378884 1.905180 11.578252 -4.982832 13.405846 11.311741 3.517325 8.486210 1.851581 3.516868 8.485493 1.851257 0.000000 -0.000003 -0.000005 -3.466234 -6.910135 -39.124655 -0.009179 0.002684 -31.381680 -0.004884 0.004954 -31.168370 -0.000000 0.000002 -0.000011 -1.915516 -6.193604 -34.198617 0.001236 0.005464 -28.105354 -0.007329 0.001266 -27.930834 -0.000001 -0.000001 0.000007 -0.682809 -5.541202 -29.068387 -0.000918 0.003742 -24.675160 0.000382 0.004946 -24.545166 0.000001 0.000000 0.000002 0.376722 -6.145609 -25.285053 -0.034534 0.056857 -22.183831 0.008630 0.023968 -22.069453 0.000001 0.000000 -0.000004 3.460694 0.236094 4.393019 -1.477832 25.831531 70.378638 6.809942 19.846218 4.732076 -19.537568 0.958327 -12.165025 -0.782958 -20.555750 -5.075715 4.541228 -11.071017 -2.314888 -0.011899 0.021500 0.007013 -0.000001 0.000000 -0.000000 0.748697 1.485548 23.202808 -0.036691 -0.055030 19.908362 -0.000114 -0.021941 19.774603 -0.000003 -0.000001 -0.000001 -0.268001 2.185009 25.525008 -0.000254 0.002712 21.457826 -0.006637 -0.004123 21.314888 0.000000 0.000004 0.000003 -1.284764 3.638230 29.547835 0.000918 -0.004718 24.164412 -0.004479 -0.005718 23.983636 -0.000000 0.000002 -0.000003 -2.714499 5.335801 33.797460 0.001109 -0.005442 26.995402 0.001318 -0.005331 26.784390 -0.000003 0.000000 0.000001 -26.294919 3.724521 6.994445 56.854416 1.406280 0.203621 -1.457099 0.490346 -7.623908 -10.538831 -1.036536 5.076586 0.000000 0.000001 -0.000000 -9.604295 -5.912463 9.904753 30.152615 5.505111 0.324964 -14.511637 3.035151 -11.660173 0.505585 -0.005964 0.930203 -0.000000 -0.000000 -0.000000 
1.328218 88.820541 6.875125 -1.524450 -0.312662 -2.631531 13.243638 1.578126 3.659636 -4.231730 1.241828 -1.437019 -4.201133 1.115981 -1.573254 0.217464 -1.770883 2.577538 -6.317280 -0.452291 -1.922309 -0.000000 0.000000 0.000000 2.368958 2.705781 -1.362507 -2.986350 -7.154486 -73.915098 12.249744 -10.241050 -8.922913 0.383116 0.965403 11.753344 -4.982823 13.405943 11.311703 3.517346 8.486177 1.851571 3.516862 8.485494 1.851264 -0.000000 -0.000004 -0.000003 -3.466230 -6.910116 -39.124649 -0.009145 0.002875 -31.381656 -0.004850 0.004966 -31.168339 0.000000 0.000001 -0.000000 -1.915509 -6.193619 -34.198644 0.001220 0.005508 -28.105301 -0.007285 0.001315 -27.930848 0.000000 0.000002 0.000007 -0.682853 -5.541193 -29.068366 -0.000907 0.003777 -24.675204 0.000417 0.005027 -24.545130 -0.000000 -0.000002 0.000004 0.376704 -6.145589 -25.285012 -0.034547 0.056886 -22.183848 0.008685 0.024000 -22.069458 -0.000000 0.000002 -0.000003 3.467900 0.387203 4.694762 -2.149634 26.944524 69.706821 7.456735 20.344115 3.835100 -21.013041 2.745128 -13.001123 -0.996428 -19.952548 -5.003651 4.309297 -10.478239 -2.210034 -0.266306 0.604372 0.152475 0.000001 0.000000 -0.000000 0.750335 1.487113 22.550664 -0.037244 -0.054313 19.256286 -0.002524 -0.021897 19.122501 0.000000 -0.000003 0.000003 -0.267060 2.178329 24.873039 -0.003386 0.005460 20.805675 -0.009766 -0.001281 20.662828 -0.000000 0.000001 -0.000002 -1.283537 3.643297 28.896143 0.001312 -0.000614 23.512317 -0.011136 -0.003763 23.331626 -0.000003 -0.000004 -0.000005 -2.716051 5.329826 33.145638 -0.000375 -0.002572 26.343273 -0.000945 -0.002484 26.132297 0.000001 -0.000004 0.000002 -29.823065 4.072744 6.459584 49.340460 2.042755 0.300520 -3.560770 0.537911 -7.641036 -1.348286 1.049454 5.425883 0.000001 0.000001 -0.000000 -6.154053 -5.515335 9.302828 28.499234 6.095989 0.474865 -16.852327 3.314421 -11.849588 0.121696 0.139629 1.140177 0.000000 0.000001 -0.000000 
1.231169 89.223778 10.817234 -0.855950 -0.770572 -2.198110 12.209239 1.792200 3.468880 -3.740215 1.513236 -1.622920 -3.696775 1.372288 -1.776563 -0.248759 -1.713242 2.149407 -6.644593 -0.508337 -1.982105 0.000000 -0.000000 0.000000 2.401945 3.061533 -1.899903 -2.773273 -6.405474 -73.762847 12.198909 -9.630615 -9.029525 1.169943 -0.169562 12.225507 -4.982771 13.406008 11.311773 3.517359 8.486177 1.851590 3.516843 8.485481 1.851263 -0.000000 -0.000004 -0.000002 -3.466214 -6.910130 -39.124638 -0.009131 0.003072 -31.381670 -0.004778 0.005055 -31.168359 0.000001 0.000002 -0.000005 -1.915479 -6.193621 -34.198631 0.001212 0.005545 -28.105351 -0.007240 0.001371 -27.930826 -0.000001 -0.000000 0.000005 -0.682819 -5.541195 -29.068363 -0.000905 0.003775 -24.675189 0.000434 0.005090 -24.545110 -0.000001 -0.000002 0.000006 0.376745 -6.145604 -25.284980 -0.034585 0.056906 -22.183828 0.008747 0.024038 -22.069441 -0.000000 -0.000000 -0.000001 3.464642 0.537324 4.648045 -2.904948 28.654621 68.936539 7.847145 20.883151 2.998131 -22.013749 4.132530 -14.710614 -1.231569 -19.288555 -4.921916 4.052797 -9.825916 -2.092606 -0.547974 1.245545 0.316051 0.000001 0.000000 -0.000000 0.752189 1.488769 21.832385 -0.037842 -0.053493 18.538085 -0.005145 -0.021775 18.404348 -0.000001 -0.000003 0.000003 -0.265653 2.174733 24.154798 -0.006780 0.008555 20.087530 -0.011328 0.001895 19.944699 -0.000000 0.000001 -0.000004 -1.282081 3.648865 28.178029 0.001857 0.001616 22.794153 -0.018419 -0.001528 22.613513 -0.000002 0.000000 -0.000002 -2.717627 5.325973 32.427553 -0.001921 0.000622 25.625184 -0.003422 0.000696 25.414140 0.000002 -0.000004 -0.000001 -32.828980 4.579536 5.956509 40.246330 3.038935 0.482052 -1.143329 0.226052 -6.514012 1.782777 2.603109 -1.943424 -0.000001 0.000000 -0.000000 -2.442199 -5.285031 8.761945 26.241179 6.928306 0.635859 -18.543561 3.486300 -11.795808 -0.193539 0.402975 1.242057 -0.000000 0.000000 0.000000 
1.190523 89.551613 14.467646 -0.345209 -1.331599 -1.723452 11.723693 1.965472 3.063971 -3.528159 1.752672 -1.719517 -3.473140 1.606026 -1.891170 -0.033744 -1.754424 1.883728 -7.327943 -0.569215 -2.192892 0.000000 -0.000000 0.000000 2.422188 3.093368 -2.261835 -2.236102 -5.474266 -73.770811 12.052930 -9.054646 -9.247882 1.542061 -1.281892 12.868009 -4.982807 13.406105 11.311810 3.517418 8.486140 1.851537 3.516816 8.485501 1.851289 -0.000000 0.000001 -0.000003 -3.466220 -6.910127 -39.124621 -0.009103 0.003224 -31.381656 -0.004780 0.005106 -31.168332 0.000003 0.000000 -0.000002 -1.915506 -6.193611 -34.198638 0.001222 0.005553 -28.105368 -0.007242 0.001414 -27.930855 0.000001 0.000001 0.000005 -0.682841 -5.541203 -29.068387 -0.000929 0.003787 -24.675172 0.000451 0.005162 -24.545139 -0.000000 -0.000000 0.000009 0.376724 -6.145589 -25.284980 -0.034608 0.056897 -22.183860 0.008825 0.024060 -22.069434 -0.000001 0.000001 0.000001 3.454010 0.714764 4.492717 -3.162398 30.522804 68.190573 8.013601 21.456443 2.190104 -22.723942 5.350406 -16.744373 -1.475464 -18.600258 -4.834422 3.785497 -9.149910 -1.968616 -0.841802 1.909640 0.489850 -0.000002 0.000001 0.000002 0.754116 1.490495 21.087521 -0.038454 -0.052624 17.793316 -0.007842 -0.021631 17.659580 -0.000002 0.000000 0.000001 -0.263861 2.174886 23.409951 -0.010300 0.011602 19.342749 -0.009882 0.005236 19.199889 0.000001 0.000001 -0.000004 -1.280492 3.654636 27.433318 0.002557 0.001140 22.049348 -0.019508 0.001897 21.868681 -0.000000 0.000002 -0.000003 -2.719021 5.326824 31.682946 -0.003261 -0.005015 24.880342 -0.005915 0.004044 24.669361 0.000001 0.000000 -0.000003 -35.158488 5.303769 5.338174 31.056320 1.945819 0.676296 0.626499 -0.254637 -6.461972 2.101516 6.138243 -4.662767 -0.000000 0.000000 -0.000001 0.950261 -4.915699 8.020444 24.061730 7.822621 0.739535 -19.815362 3.480186 -11.280524 -0.576124 0.623789 0.901158 -0.000000 0.000000 -0.000000 
1.199926 89.719978 18.089594 -0.072367 -1.939432 -1.445647 11.857742 2.125852 2.785851 -3.760697 1.947574 -1.773798 -3.693905 1.804381 -1.970016 1.187293 -1.839743 1.775386 -8.181107 -0.601925 -2.514483 -0.000000 -0.000000 0.000000 2.444180 3.248074 -2.529710 -1.207764 -4.443557 -73.904962 12.214739 -8.763200 -9.431126 1.430711 -2.098233 13.539458 -4.982789 13.406136 11.311851 3.517433 8.486152 1.851591 3.516848 8.485503 1.851273 0.000000 -0.000000 -0.000001 -3.466229 -6.910136 -39.124601 -0.009055 0.003395 -31.381663 -0.004722 0.005167 -31.168342 0.000001 0.000003 -0.000003 -1.915516 -6.193634 -34.198675 0.001225 0.005606 -28.105325 -0.007208 0.001475 -27.930846 -0.000002 0.000001 0.000003 -0.682848 -5.541203 -29.068360 -0.000909 0.003784 -24.675155 0.000472 0.005228 -24.545149 0.000002 0.000002 0.000007 0.376716 -6.145604 -25.285005 -0.034630 0.056912 -22.183809 0.008866 0.024102 -22.069449 -0.000000 0.000001 0.000003 3.406818 1.228910 4.091492 -2.759305 32.000201 67.725588 8.359236 22.043227 1.236346 -23.585804 6.556255 -18.802179 -1.715326 -17.924121 -4.745811 3.521487 -8.486040 -1.844318 -1.132368 2.561462 0.664432 -0.000000 -0.000001 -0.000004 0.756008 1.492164 20.355446 -0.039013 -0.051798 17.061266 -0.010528 -0.021443 16.927541 0.000003 -0.000003 -0.000001 -0.262026 2.174940 22.677867 -0.013636 0.014459 18.610795 -0.007418 0.008507 18.467879 -0.000001 0.000001 -0.000001 -1.279205 3.654487 26.701214 0.003253 0.002611 21.317374 -0.019352 0.005523 21.136656 0.000001 -0.000000 -0.000003 -2.720307 5.328692 30.951152 -0.000798 -0.010848 24.148330 -0.008387 0.007332 23.937364 -0.000000 -0.000001 -0.000001 -36.789202 6.031371 4.745750 23.181893 -0.422150 0.760470 -0.078756 -0.349211 -7.025254 2.630062 8.487212 -6.514708 -0.000001 0.000001 -0.000002 4.351223 -4.823043 7.421079 22.077567 8.919216 0.744338 -20.612961 3.430840 -10.738704 -1.498917 0.814479 0.310164 -0.000000 0.000000 -0.000000 
1.233346 89.757088 21.618240 -0.573551 -2.799293 -1.425233 12.800708 2.404168 2.745217 -3.879148 2.237967 -1.947541 -3.791289 2.071082 -2.186550 2.312463 -1.922151 2.104507 -9.281855 -0.486963 -2.794274 -0.000000 0.000000 -0.000000 2.427429 3.228250 -2.271090 -0.423254 -3.422687 -74.377147 12.986777 -8.475537 -9.446131 0.521125 -3.017264 14.138888 -4.982758 13.406242 11.311848 3.517437 8.486127 1.851595 3.516856 8.485486 1.851232 0.000001 -0.000002 -0.000003 -3.466239 -6.910126 -39.124635 -0.009007 0.003588 -31.381700 -0.004697 0.005219 -31.168359 -0.000000 0.000002 0.000001 -1.915520 -6.193612 -34.198621 0.001242 0.005623 -28.105306 -0.007170 0.001535 -27.930851 -0.000001 0.000000 0.000003 -0.682859 -5.541198 -29.068411 -0.000902 0.003802 -24.675168 0.000509 0.005274 -24.545125 -0.000001 -0.000002 0.000001 0.376743 -6.145594 -25.285019 -0.034676 0.056921 -22.183838 0.008927 0.024113 -22.069458 0.000000 -0.000000 -0.000001 3.386233 1.495800 4.041285 -2.310168 33.641171 67.145561 7.811316 22.593299 0.679016 -24.209153 7.132884 -19.863276 -1.938286 -17.296532 -4.661112 3.275088 -7.870084 -1.726976 -1.402720 3.166690 0.829341 -0.000001 0.000000 0.000001 0.757786 1.493678 19.675584 -0.039548 -0.051015 16.381418 -0.013046 -0.021281 16.247709 -0.000006 0.000000 0.000001 -0.260240 2.174815 21.997951 -0.016726 0.017033 17.930997 -0.003252 0.011611 17.788068 -0.000001 0.000004 -0.000006 -1.277921 3.654638 26.021327 0.003898 0.004743 20.637517 -0.019264 0.008983 20.456814 -0.000004 -0.000003 -0.000003 -2.721447 5.330543 30.271477 0.001486 -0.016755 23.468448 -0.010558 0.010421 23.257557 0.000001 0.000001 0.000006 -36.863808 6.875182 4.450498 16.235329 -3.138363 0.808830 -0.976746 0.001675 -7.586943 1.748181 10.835526 -7.977609 -0.000000 0.000002 -0.000002 8.180967 -4.677367 6.981912 20.474486 10.249650 0.613912 -21.118590 3.220966 -9.978563 -2.750453 0.890504 -0.078033 -0.000000 -0.000000 -0.000000 
